# xmcd
#
# Track frame offsets:
#	150
#	13394
#	27614
#	39740
#	58604
#	68833
#	84757
#	99392
#	116198
#	128325
#	141264
#	159206
#	176890
#	191698
#
# Disc length: 2830 seconds
#
# Revision: 0
# Processed by: cddbd v1.5.2PL0 Copyright (c) Steve Scherf et al.
# Submitted via: dBpowerAMP V4.0
#
DISCID=bf0b0c0e
DTITLE=Various Artist - Promo
DYEAR=2009
DGENRE=Blues
TTITLE0=Big Joe Louis - 01 She Was All The World To Me
TTITLE1=02 Hey Hey Now Baby
TTITLE2=03 Rock and Roll Baby
TTITLE3=04 What's The Matter?
TTITLE4=05 Calling Baby
TTITLE5=06 Drink On, Little Girl
TTITLE6=07 Can't Stop Lovin'
TTITLE7=08 Tailor Made
TTITLE8=09 Baby Please Don't Go
TTITLE9=10 Go-Go Train
TTITLE10=11 Down Jamaica Way
TTITLE11=12 See My Jumper On The Line
TTITLE12=13 Christmas Eve 1993
TTITLE13=14 Wine Head
EXTD=
EXTT0=
EXTT1=
EXTT2=
EXTT3=
EXTT4=
EXTT5=
EXTT6=
EXTT7=
EXTT8=
EXTT9=
EXTT10=
EXTT11=
EXTT12=
EXTT13=
PLAYORDER=
